<?xml version="1.0" encoding="utf-8"?>
<!-- Generator: Adobe Illustrator 22.1.0, SVG Export Plug-In . SVG Version: 6.00 Build 0)  -->
<svg version="1.1" id="Layer_1" xmlns="http://www.w3.org/2000/svg" xmlns:xlink="http://www.w3.org/1999/xlink" x="0px" y="0px"
	 viewBox="0 0 162.5 40.6" style="enable-background:new 0 0 162.5 40.6;" xml:space="preserve">
<style type="text/css">
	.st0{fill:#EB2227;}
	.st1{fill:#FFFFFF;}
	.st2{fill:#2E368F;}
	.st3{fill:#F37821;}
	.st4{fill:#29ABE2;}
</style>
<rect class="st0" width="40.6" height="40.6"/>
<polyline class="st1" points="5.2,6.8 15.2,6.8 20.4,21.9 25.6,6.8 35.5,6.8 24.6,33.8 16,33.8 "/>
<rect x="40.6" class="st2" width="40.6" height="40.6"/>
<polyline class="st1" points="50.2,6.8 59.1,6.8 59.1,26.1 71.7,26.1 71.7,33.8 50.2,33.8 "/>
<rect x="81.2" class="st3" width="40.6" height="40.6"/>
<path class="st1" d="M97.1,6.8h8.9l11.3,27h-9.7l-1.4-3.6h-9.4l-1.4,3.6h-9.6 M103.9,23.8l-2.4-6.5L99,23.8H103.9z"/>
<rect x="121.8" class="st4" width="40.6" height="40.6"/>
<polyline class="st1" points="128.8,6.8 137.1,6.8 146.7,18.6 146.7,6.8 155.5,6.8 155.5,33.8 147.6,33.8 137.6,21.4 137.6,33.8 
	128.8,33.8 "/>
</svg>
