<svg width="945" height="496" viewBox="0 0 945 496" fill="none" xmlns="http://www.w3.org/2000/svg">
<g clip-path="url(#clip0_4015_656)">
<rect width="945" height="495" transform="translate(0 0.0949707)" fill="#95D1F9"/>
<circle cx="472.5" cy="441.745" r="429.592" fill="#E2F1FF"/>
<ellipse cx="311.913" cy="235.012" rx="14.7997" ry="28.8451" transform="rotate(-31.416 311.913 235.012)" fill="#0EAD69"/>
<ellipse cx="623.668" cy="144.152" rx="25.934" ry="50.5463" transform="rotate(22.5218 623.668 144.152)" fill="#0EAD69"/>
<ellipse cx="602.652" cy="239.778" rx="16.2883" ry="31.7465" transform="rotate(-27.8621 602.652 239.778)" fill="#0EAD69"/>
<ellipse cx="626.854" cy="235.672" rx="11.5526" ry="22.5165" transform="rotate(-45.8464 626.854 235.672)" fill="#0EAD69"/>
<ellipse cx="336.875" cy="107.002" rx="14.7997" ry="28.8451" transform="rotate(32.8216 336.875 107.002)" fill="#0EAD69"/>
<ellipse cx="539.612" cy="53.4777" rx="14.7997" ry="28.8451" transform="rotate(32.8216 539.612 53.4777)" fill="#0EAD69"/>
<ellipse cx="198.708" cy="178.193" rx="20.916" ry="40.7662" transform="rotate(73.9304 198.708 178.193)" fill="#0EAD69"/>
<ellipse cx="278.947" cy="234.211" rx="14.7997" ry="28.8451" transform="rotate(-59.1842 278.947 234.211)" fill="#0EAD69"/>
<path d="M489.62 131.774L487.343 114.978L500.4 109.454L508.545 134.242C510.734 140.905 510.322 148.149 507.391 154.521L500.4 169.718L456.206 183.278L482.649 154.191C488.171 148.116 490.723 139.91 489.62 131.774Z" fill="#663C2B"/>
<path d="M353.278 232.645L318.082 185.911L324.453 180.698L354.739 210.495C360.165 215.834 367.254 219.154 374.829 219.905L427.412 225.116L414.091 253.495L385.807 243.003C380.958 241.204 375.571 241.571 371.011 244.01L354.842 252.659C353.802 253.215 352.702 253.648 351.563 253.951L305.377 266.237L302.481 253.495L341.274 241.052C343.083 240.472 344.767 239.56 346.241 238.362L353.278 232.645Z" fill="#663C2B"/>
<path d="M548.447 165.526L566.794 183.873V200.092L540.434 182.315C535.035 178.673 528.31 177.584 522.036 179.334L472.765 193.085C465.925 194.993 459.963 199.225 455.905 205.053L433.821 236.763C431.817 239.64 431.595 243.396 433.244 246.49C435.426 250.58 440.279 252.449 444.641 250.879L492.884 233.512C507.876 228.115 524.633 233.182 534.123 245.981L578.634 306.02C584.34 313.717 585.426 323.901 581.472 332.627L540.844 422.289H392.443L412.011 373.684C415.588 364.798 422.431 357.618 431.135 353.617L502.208 320.946C510.629 317.075 513.692 306.658 508.705 298.845L500.134 285.418C496.406 279.577 489.213 276.976 482.612 279.083L427.693 296.61C421.391 298.622 414.499 297.291 409.398 293.077L392.631 279.226C385.457 273.3 383.488 263.121 387.934 254.946L425.717 185.474C428.772 179.856 434.239 175.952 440.544 174.886L530.242 159.716C536.893 158.592 543.677 160.757 548.447 165.526Z" fill="#824F36"/>
<path fill-rule="evenodd" clip-rule="evenodd" d="M506.574 295.507L500.134 285.417C496.406 279.576 489.213 276.976 482.612 279.083L479.771 279.99L500.268 273.293C515.488 268.319 532.187 273.559 541.837 286.337L549.847 296.942C561.632 312.546 568.653 331.224 570.064 350.727L570.506 356.828L540.844 422.289H463.114L498.864 380.585C517.108 359.303 521.58 329.663 510.827 304.13C510.471 302.309 509.772 300.517 508.705 298.845L506.851 295.94L506.629 295.511L506.574 295.507Z" fill="#663C2B"/>
<path fill-rule="evenodd" clip-rule="evenodd" d="M470.619 193.77C464.681 195.909 459.533 199.844 455.905 205.053L433.821 236.763C431.818 239.64 431.595 243.397 433.245 246.49C435.426 250.58 440.28 252.45 444.642 250.879L456.52 246.603L416.87 262.25C414.113 263.337 410.977 262.733 408.823 260.698C406.374 258.386 405.73 254.743 407.236 251.731L426.537 213.128C428.748 208.707 432.674 205.386 437.401 203.939L470.619 193.77Z" fill="#663C2B"/>
<rect x="414.912" y="49.1343" width="152.772" height="71.1055" rx="8.72253" fill="#4680E1"/>
<path d="M433.381 72.7943L440.065 93.0097H440.329L447 72.7943H452.117L443.063 98.4774H437.319L428.277 72.7943H433.381ZM455.5 98.4774V72.7943H460.152V94.5773H471.464V98.4774H455.5ZM479.766 98.4774H474.8L483.841 72.7943H489.585L498.639 98.4774H493.673L486.814 78.0613H486.613L479.766 98.4774ZM479.929 88.4073H493.473V92.1444H479.929V88.4073ZM523.128 72.7943V98.4774H518.99L506.888 80.9833H506.675V98.4774H502.022V72.7943H506.186L518.275 90.3009H518.501V72.7943H523.128ZM547.153 72.7943V98.4774H542.5V77.3214H542.35L536.343 81.1588V76.895L542.726 72.7943H547.153Z" fill="black"/>
<rect x="564.244" y="134.869" width="221.471" height="103.08" rx="12.6449" fill="#DCC6FF"/>
<path d="M589.004 169.879L598.694 199.185H599.076L608.748 169.879H616.165L603.039 207.112H594.713L581.605 169.879H589.004ZM621.069 207.112V169.879H627.814V201.458H644.212V207.112H621.069ZM656.247 207.112H649.048L662.155 169.879H670.482L683.608 207.112H676.408L666.464 177.515H666.173L656.247 207.112ZM656.483 192.513H676.118V197.931H656.483V192.513ZM719.108 169.879V207.112H713.109L695.566 181.751H695.256V207.112H688.512V169.879H694.547L712.073 195.258H712.4V169.879H719.108ZM752.155 207.621C749.537 207.621 747.21 207.172 745.174 206.275C743.15 205.379 741.55 204.13 740.374 202.53C739.199 200.931 738.575 199.082 738.502 196.986H745.337C745.398 197.992 745.731 198.87 746.337 199.622C746.943 200.361 747.749 200.937 748.755 201.349C749.761 201.761 750.888 201.967 752.137 201.967C753.47 201.967 754.652 201.737 755.682 201.276C756.712 200.803 757.518 200.149 758.1 199.313C758.681 198.476 758.966 197.513 758.954 196.422C758.966 195.295 758.675 194.301 758.082 193.44C757.488 192.58 756.627 191.907 755.5 191.423C754.385 190.938 753.04 190.695 751.464 190.695H748.174V185.496H751.464C752.761 185.496 753.894 185.272 754.864 184.823C755.845 184.375 756.615 183.745 757.173 182.933C757.73 182.108 758.003 181.157 757.991 180.078C758.003 179.024 757.766 178.109 757.282 177.333C756.809 176.545 756.136 175.933 755.264 175.497C754.403 175.061 753.391 174.842 752.228 174.842C751.088 174.842 750.034 175.049 749.064 175.461C748.095 175.873 747.313 176.46 746.719 177.224C746.125 177.975 745.81 178.872 745.774 179.915H739.284C739.332 177.83 739.932 176 741.083 174.424C742.247 172.837 743.798 171.6 745.737 170.716C747.677 169.819 749.852 169.37 752.264 169.37C754.749 169.37 756.906 169.837 758.736 170.77C760.578 171.691 762.002 172.934 763.008 174.497C764.014 176.061 764.517 177.788 764.517 179.678C764.529 181.775 763.911 183.532 762.663 184.95C761.427 186.369 759.803 187.296 757.791 187.732V188.023C760.409 188.386 762.414 189.356 763.808 190.932C765.214 192.495 765.911 194.44 765.899 196.767C765.899 198.852 765.305 200.718 764.117 202.367C762.942 204.003 761.318 205.288 759.245 206.221C757.185 207.154 754.821 207.621 752.155 207.621Z" fill="black"/>
<rect x="208.683" y="115.501" width="174.91" height="81.4092" rx="9.9865" fill="#95D1F9"/>
<path d="M229.828 142.662L237.481 165.807H237.782L245.421 142.662H251.279L240.912 172.067H234.336L223.984 142.662H229.828ZM255.152 172.067V142.662H260.478V167.602H273.429V172.067H255.152ZM282.934 172.067H277.248L287.6 142.662H294.176L304.543 172.067H298.857L291.003 148.693H290.773L282.934 172.067ZM283.121 160.538H298.627V164.817H283.121V160.538ZM332.58 142.662V172.067H327.842L313.986 152.038H313.742V172.067H308.416V142.662H313.182L327.023 162.706H327.282V142.662H332.58ZM348.126 172.067V168.219L358.334 158.212C359.311 157.226 360.124 156.35 360.775 155.584C361.426 154.819 361.914 154.077 362.24 153.359C362.565 152.641 362.728 151.875 362.728 151.062C362.728 150.133 362.517 149.339 362.096 148.678C361.675 148.008 361.096 147.491 360.359 147.128C359.622 146.764 358.784 146.582 357.846 146.582C356.879 146.582 356.032 146.783 355.305 147.185C354.577 147.578 354.013 148.138 353.61 148.865C353.218 149.592 353.022 150.459 353.022 151.464H347.954C347.954 149.597 348.379 147.975 349.231 146.596C350.083 145.218 351.256 144.151 352.749 143.395C354.252 142.638 355.975 142.26 357.918 142.26C359.89 142.26 361.622 142.629 363.115 143.366C364.609 144.103 365.767 145.113 366.59 146.395C367.423 147.678 367.839 149.143 367.839 150.789C367.839 151.89 367.629 152.971 367.207 154.034C366.786 155.096 366.044 156.274 364.982 157.566C363.929 158.858 362.45 160.423 360.545 162.261L355.477 167.415V167.616H368.284V172.067H348.126Z" fill="black"/>
<rect x="205.065" y="234.933" width="134.514" height="62.6077" rx="7.68011" fill="#FFBD6E"/>
<path d="M220.103 255.829L225.989 273.629H226.221L232.095 255.829H236.6L228.628 278.443H223.571L215.609 255.829H220.103ZM239.578 278.443V255.829H243.675V275.009H253.635V278.443H239.578ZM260.945 278.443H256.572L264.533 255.829H269.59L277.563 278.443H273.19L267.15 260.467H266.973L260.945 278.443ZM261.088 269.576H273.013V272.867H261.088V269.576ZM299.125 255.829V278.443H295.481L284.825 263.039H284.638V278.443H280.541V255.829H284.207L294.851 271.244H295.05V255.829H299.125ZM310.672 274.247V270.99L320.267 255.829H322.983V260.467H321.327L314.868 270.703V270.879H328.261V274.247H310.672ZM321.46 278.443V273.253L321.504 271.796V255.829H325.368V278.443H321.46Z" fill="black"/>
<circle cx="390.073" cy="414.153" r="25.5276" fill="#0EAD69"/>
<circle cx="443.865" cy="399.132" r="41.1243" fill="#0EAD69"/>
<circle cx="522.851" cy="422.371" r="50.5646" fill="#0EAD69"/>
<ellipse cx="580.892" cy="419.604" rx="17.6651" ry="29.7101" transform="rotate(24.5391 580.892 419.604)" fill="#0EAD69"/>
<ellipse cx="346.758" cy="412.609" rx="18.6438" ry="28.8451" transform="rotate(-19.9325 346.758 412.609)" fill="#0EAD69"/>
<path d="M279.393 436.373C276.147 429.908 280.847 422.289 288.081 422.289H638.148C645.382 422.289 650.082 429.908 646.836 436.373L613.779 502.216C612.837 504.094 610.916 505.279 608.815 505.279H317.414C315.313 505.279 313.392 504.094 312.449 502.216L279.393 436.373Z" fill="#4680E1"/>
</g>
<defs>
<clipPath id="clip0_4015_656">
<rect width="945" height="495" fill="white" transform="translate(0 0.0949707)"/>
</clipPath>
</defs>
</svg>
